<?xml version="1.0" standalone="no"?>
<!DOCTYPE svg PUBLIC "-//W3C//DTD SVG 20010904//EN"
 "http://www.w3.org/TR/2001/REC-SVG-20010904/DTD/svg10.dtd">
<svg version="1.0" xmlns="http://www.w3.org/2000/svg"
 width="554.000000pt" height="554.000000pt" viewBox="0 0 554.000000 554.000000"
 preserveAspectRatio="xMidYMid meet">
<metadata>
Created by potrace 1.14, written by Peter Selinger 2001-2017
</metadata>
<g transform="translate(0.000000,554.000000) scale(0.100000,-0.100000)"
fill="#000000" stroke="none">
<path d="M2023 5517 c-100 -77 -121 -131 -94 -237 12 -46 48 -163 58 -190 3
-8 7 -19 9 -25 3 -14 66 -176 99 -255 14 -36 41 -94 58 -130 l32 -65 39 3 c22
2 49 6 60 8 135 27 794 24 1016 -4 l55 -7 27 55 c138 286 258 650 237 723 -9
33 -47 80 -96 118 l-35 28 -58 -29 c-66 -33 -115 -52 -210 -81 -70 -21 -78
-23 -160 -38 -30 -6 -68 -13 -85 -16 -51 -10 -319 -13 -376 -4 -30 5 -72 11
-94 14 -105 16 -300 76 -380 119 -68 36 -72 36 -102 13z"/>
<path d="M2469 4286 c-2 -2 -53 -7 -114 -11 -115 -7 -140 -9 -215 -20 -25 -4
-61 -9 -80 -11 -158 -23 -407 -87 -530 -139 -418 -173 -622 -452 -635 -865 -5
-155 -13 -294 -19 -330 -3 -14 -7 -50 -10 -80 -4 -30 -8 -66 -11 -80 -2 -14
-7 -41 -9 -60 -14 -99 -64 -342 -101 -490 -14 -58 -28 -113 -30 -122 -24 -111
-103 -374 -191 -633 -9 -27 -38 -113 -64 -190 -26 -77 -57 -169 -69 -205 -12
-36 -24 -72 -26 -80 -1 -8 -19 -64 -38 -125 -48 -147 -86 -282 -93 -324 -3
-19 -9 -44 -14 -55 -4 -12 -7 -52 -6 -91 2 -93 20 -123 115 -185 72 -48 272
-104 446 -124 28 -4 68 -9 90 -11 86 -10 255 -25 344 -30 454 -26 2751 -26
3126 0 240 16 406 35 552 61 265 47 403 121 433 230 28 99 -8 238 -240 934
-132 398 -189 575 -196 605 -1 6 -15 60 -32 120 -47 170 -127 522 -146 645 -3
19 -8 46 -10 60 -7 36 -15 94 -22 148 -3 26 -7 58 -9 72 -4 30 -15 217 -20
355 -13 372 -200 646 -555 813 -167 78 -409 147 -625 178 -27 3 -59 8 -70 10
-11 3 -51 7 -90 10 -38 3 -86 7 -105 10 -42 7 -724 16 -731 10z"/>
</g>
</svg>
